<svg width="387" height="199" viewBox="0 0 387 199" fill="none" xmlns="http://www.w3.org/2000/svg">
<path d="M349.638 155.012C349.257 169.251 346.871 183.364 342.552 196.937C342.457 197.252 342.35 197.562 342.247 197.877H315.807C315.835 197.595 315.864 197.28 315.892 196.937C317.654 176.67 307.583 54.7919 295.431 33.698C296.495 35.4091 351.688 90.6161 349.638 155.012Z" fill="#F5DCB4"/>
<path d="M347.654 196.937C347.433 197.252 347.203 197.567 346.968 197.877H327.132C327.282 197.609 327.456 197.294 327.658 196.937C330.935 191.023 340.634 173.342 349.636 155.012C359.307 135.314 368.187 114.87 367.439 107.47C367.671 109.138 374.366 160.014 347.654 196.937Z" fill="#F5DCB4"/>
<path d="M32.2018 156.849H2.98429C2.19312 156.848 1.4346 156.533 0.875134 155.972C0.315668 155.411 0.000944216 154.65 0 153.856V113.46C0.000944216 112.667 0.315668 111.906 0.875134 111.345C1.4346 110.784 2.19312 110.468 2.98429 110.468H32.2018C32.993 110.468 33.7515 110.784 34.311 111.345C34.8705 111.906 35.1852 112.667 35.1861 113.46V153.856C35.1852 154.65 34.8705 155.411 34.311 155.972C33.7515 156.533 32.993 156.848 32.2018 156.849Z" fill="#F5DCB4"/>
<path d="M85.7809 156.849H56.5634C55.7722 156.848 55.0137 156.533 54.4542 155.971C53.8948 155.41 53.58 154.648 53.5791 153.854V75.0781C53.58 74.2839 53.8948 73.5226 54.4542 72.961C55.0137 72.3995 55.7722 72.0836 56.5634 72.0828H85.7809C86.5721 72.0836 87.3306 72.3995 87.8901 72.961C88.4496 73.5226 88.7643 74.2839 88.7652 75.0781V153.854C88.7643 154.648 88.4496 155.41 87.8901 155.971C87.3306 156.533 86.5721 156.848 85.7809 156.849Z" fill="#F5DCB4"/>
<path d="M139.36 156.849H110.143C109.351 156.848 108.593 156.533 108.033 155.972C107.474 155.411 107.159 154.65 107.158 153.856V113.46C107.159 112.667 107.474 111.906 108.033 111.345C108.593 110.784 109.351 110.468 110.143 110.468H139.36C140.151 110.468 140.91 110.784 141.469 111.345C142.029 111.906 142.343 112.667 142.344 113.46V153.856C142.343 154.65 142.029 155.411 141.469 155.972C140.91 156.533 140.151 156.848 139.36 156.849Z" fill="#F5DCB4"/>
<path d="M192.139 156.849H162.922C162.149 156.865 161.4 156.574 160.841 156.037C160.282 155.501 159.957 154.764 159.938 153.987V59.7506C159.957 58.9742 160.282 58.237 160.841 57.7007C161.4 57.1644 162.149 56.8726 162.922 56.8894H192.139C192.913 56.8726 193.661 57.1644 194.22 57.7007C194.779 58.237 195.104 58.9742 195.124 59.7506V153.987C195.104 154.764 194.779 155.501 194.22 156.037C193.661 156.574 192.913 156.865 192.139 156.849Z" fill="#F5DCB4"/>
<path d="M245.717 156.849H216.5C215.709 156.848 214.95 156.533 214.391 155.971C213.831 155.41 213.517 154.648 213.516 153.854V32.6948C213.517 31.9007 213.831 31.1393 214.391 30.5777C214.95 30.0162 215.709 29.7003 216.5 29.6995H245.717C246.509 29.7003 247.267 30.0162 247.827 30.5777C248.386 31.1393 248.701 31.9007 248.702 32.6948V153.854C248.701 154.648 248.386 155.41 247.827 155.971C247.267 156.533 246.509 156.848 245.717 156.849Z" fill="#F5DCB4"/>
<path d="M17.9928 98.4723C21.3052 98.4723 23.9904 95.7871 23.9904 92.4747C23.9904 89.1623 21.3052 86.4771 17.9928 86.4771C14.6804 86.4771 11.9951 89.1623 11.9951 92.4747C11.9951 95.7871 14.6804 98.4723 17.9928 98.4723Z" fill="#4AC16C"/>
<path d="M70.7721 59.2878C74.0845 59.2878 76.7697 56.6025 76.7697 53.2901C76.7697 49.9777 74.0845 47.2925 70.7721 47.2925C67.4596 47.2925 64.7744 49.9777 64.7744 53.2901C64.7744 56.6025 67.4596 59.2878 70.7721 59.2878Z" fill="#4AC16C"/>
<path d="M124.351 98.4723C127.664 98.4723 130.349 95.7871 130.349 92.4747C130.349 89.1623 127.664 86.4771 124.351 86.4771C121.039 86.4771 118.354 89.1623 118.354 92.4747C118.354 95.7871 121.039 98.4723 124.351 98.4723Z" fill="#4AC16C"/>
<path d="M177.93 40.0951C181.243 40.0951 183.928 37.4099 183.928 34.0975C183.928 30.7851 181.243 28.0999 177.93 28.0999C174.618 28.0999 171.933 30.7851 171.933 34.0975C171.933 37.4099 174.618 40.0951 177.93 40.0951Z" fill="#4AC16C"/>
<path d="M230.71 17.7043C234.022 17.7043 236.707 15.019 236.707 11.7066C236.707 8.39422 234.022 5.70898 230.71 5.70898C227.397 5.70898 224.712 8.39422 224.712 11.7066C224.712 15.019 227.397 17.7043 230.71 17.7043Z" fill="#4AC16C"/>
<path d="M124.591 93.6742L71.3286 53.5209L18.7951 93.1256L17.5928 91.5102L71.3286 50.9988L124.337 90.9616L177.013 32.9413L177.224 32.855L230.359 11.3066L231.109 13.1789L178.185 34.641L124.591 93.6742Z" fill="#4AC16C"/>
<path d="M385.763 198.834H20.9525C20.8265 198.835 20.7017 198.81 20.5852 198.762C20.4687 198.714 20.3628 198.644 20.2736 198.555C20.1844 198.466 20.1136 198.36 20.0653 198.244C20.017 198.128 19.9922 198.003 19.9922 197.877C19.9922 197.751 20.017 197.626 20.0653 197.51C20.1136 197.394 20.1844 197.288 20.2736 197.199C20.3628 197.11 20.4687 197.039 20.5852 196.992C20.7017 196.944 20.8265 196.919 20.9525 196.919H385.763C385.889 196.919 386.014 196.944 386.13 196.992C386.247 197.039 386.353 197.11 386.442 197.199C386.531 197.288 386.602 197.394 386.65 197.51C386.699 197.626 386.723 197.751 386.723 197.877C386.723 198.003 386.699 198.128 386.65 198.244C386.602 198.36 386.531 198.466 386.442 198.555C386.353 198.644 386.247 198.714 386.13 198.762C386.014 198.81 385.889 198.835 385.763 198.834Z" fill="#4AC16C"/>
<path d="M231.291 103.209C229.692 103.203 228.1 102.997 226.552 102.596L226.247 102.511L225.964 102.369C215.732 97.2393 207.1 90.4632 200.307 82.2292C194.684 75.3732 190.3 67.5889 187.353 59.2263C183.828 49.2143 182.132 38.65 182.346 28.0377C182.35 27.815 182.354 27.643 182.354 27.5245C182.354 22.3658 185.218 17.8394 189.649 15.9929C193.041 14.5797 223.836 1.93104 226.061 1.01714C230.251 -1.08246 234.721 0.669987 235.437 0.976443C237.041 1.6325 265.509 13.2762 271.661 16.2056C278.001 19.2247 279.693 24.6485 279.693 27.3772C279.693 39.7312 277.553 51.277 273.334 61.6939C269.926 70.1256 265.096 77.9098 259.054 84.7072C247.397 97.8254 235.737 102.476 235.624 102.517C234.231 102.996 232.765 103.23 231.291 103.209ZM228.549 96.4165C229.56 96.6431 231.887 96.9831 233.404 96.4297C235.331 95.7269 245.091 90.6661 254.21 80.4033C266.811 66.2235 273.204 48.3983 273.213 27.4228C273.191 26.9978 272.889 23.9669 268.875 22.0557C262.843 19.183 233.253 7.0837 232.955 6.96175L232.873 6.92709C232.253 6.66724 230.279 6.1199 228.919 6.83276L228.646 6.95975C228.317 7.09521 195.628 20.5213 192.141 21.9739C189.702 22.9901 188.834 25.5074 188.834 27.5245C188.834 27.6719 188.83 27.8863 188.824 28.1634C188.546 42.5156 191.867 77.832 228.549 96.4165Z" fill="#F5DCB4"/>
<path d="M227.415 3.96286C227.415 3.96286 194.429 17.5108 190.895 18.9834C187.361 20.456 185.594 23.9902 185.594 27.5244C185.594 31.0587 182.943 77.1757 227.415 99.4732C227.415 99.4732 231.452 100.59 234.514 99.4732C237.576 98.3564 276.453 79.5071 276.453 27.3772C276.453 27.3772 276.453 22.0758 270.268 19.1306C264.083 16.1854 234.18 3.96286 234.18 3.96286C234.18 3.96286 230.508 2.343 227.415 3.96286Z" fill="#4AC16C"/>
<path opacity="0.1" d="M230.95 14.5657V86.8389C230.95 86.8389 197.669 70.8189 197.964 28.7026L230.95 14.5657Z" fill="#FFC160"/>
<path d="M227.386 62.5109L216.784 48.8795L222.949 44.0845L227.969 50.5386L244.927 32.6372L250.598 38.01L227.386 62.5109Z" fill="white"/>
</svg>
